<svg width="21" height="19" viewBox="0 0 21 19" fill="none" xmlns="http://www.w3.org/2000/svg">
<path d="M14.4355 4.09971L5.41535 11.8272C5.01318 12.1649 4.78724 12.6228 4.78724 13.1003C4.78724 13.5778 5.01318 14.0357 5.41535 14.3734C5.81752 14.711 6.36299 14.9007 6.93175 14.9007C7.50051 14.9007 8.04597 14.711 8.44815 14.3734L17.4683 6.64585C18.2725 5.97069 18.7243 5.05498 18.7243 4.10016C18.7243 3.14533 18.2725 2.22962 17.4683 1.55446C16.6641 0.879301 15.5733 0.5 14.436 0.5C13.2987 0.5 12.208 0.879301 11.4038 1.55446L2.42115 9.25049C1.81587 9.75043 1.33449 10.346 1.00477 11.0029C0.675048 11.6599 0.503511 12.3651 0.500053 13.0779C0.496596 13.7908 0.661286 14.4971 0.984625 15.1563C1.30796 15.8154 1.78355 16.4143 2.38396 16.9183C2.98436 17.4224 3.6977 17.8217 4.48283 18.0931C5.26795 18.3646 6.10933 18.5029 6.95842 18.5C7.80751 18.4971 8.64752 18.353 9.42999 18.0762C10.2125 17.7994 10.9219 17.3953 11.5174 16.8871L20.5 9.19109" stroke="black" stroke-linecap="round" stroke-linejoin="round"/>
</svg>
