<svg width="13" height="13" viewBox="0 0 13 13" fill="none" xmlns="http://www.w3.org/2000/svg">
<path d="M0.500012 4.39013C0.500022 3.60536 0.702563 2.83905 1.08088 2.19241C1.4592 1.54577 1.99551 1.04923 2.61896 0.768369C3.24241 0.487504 3.92368 0.43553 4.5728 0.619309C5.22191 0.803089 5.80832 1.21398 6.25459 1.7977C6.28602 1.83721 6.32402 1.8687 6.36623 1.89023C6.40844 1.91176 6.45397 1.92287 6.49999 1.92287C6.546 1.92287 6.59153 1.91176 6.63374 1.89023C6.67595 1.8687 6.71395 1.83721 6.74538 1.7977C7.19025 1.21018 7.77679 0.795834 8.42696 0.609817C9.07712 0.4238 9.76007 0.474935 10.3849 0.756414C11.0097 1.03789 11.5468 1.53637 11.9246 2.18549C12.3025 2.83461 12.5032 3.6036 12.5 4.39009C12.5 6.00506 11.6 7.211 10.7 8.26884L7.40482 12.0157C7.29302 12.1666 7.15517 12.2879 7.00045 12.3714C6.84572 12.4548 6.67764 12.4987 6.50739 12.5C6.33714 12.5012 6.16861 12.4599 6.01299 12.3787C5.85738 12.2975 5.71824 12.1784 5.60482 12.0291L2.30002 8.26886C1.40002 7.21103 0.500018 6.01215 0.500012 4.39013Z" stroke="#7B7B7B" stroke-linecap="round" stroke-linejoin="round"/>
</svg>
