<svg width="10" height="12" viewBox="0 0 10 12" fill="none" xmlns="http://www.w3.org/2000/svg">
<path d="M7.5 0.5C7.80942 0.5 8.10617 0.622916 8.32496 0.841709C8.54375 1.0605 8.66667 1.35725 8.66667 1.66667V10.4167C8.66663 10.5188 8.63978 10.6192 8.58878 10.7077C8.53778 10.7962 8.46444 10.8698 8.37608 10.921C8.28773 10.9723 8.18746 10.9995 8.08531 10.9998C7.98315 11.0002 7.8827 10.9737 7.794 10.923L5.162 9.41917C4.98576 9.31849 4.7863 9.26554 4.58333 9.26554C4.38037 9.26554 4.18091 9.31849 4.00467 9.41917L1.37267 10.923C1.28397 10.9737 1.18351 11.0002 1.08136 10.9998C0.979211 10.9995 0.87894 10.9723 0.790584 10.921C0.702227 10.8698 0.628882 10.7962 0.577886 10.7077C0.526891 10.6192 0.500033 10.5188 0.5 10.4167V1.66667C0.5 1.35725 0.622916 1.0605 0.841709 0.841709C1.0605 0.622916 1.35725 0.5 1.66667 0.5H7.5Z" fill="#678BFF" stroke="#678BFF" stroke-linecap="round" stroke-linejoin="round"/>
</svg>
