<svg width="21" height="19" viewBox="0 0 21 19" fill="none" xmlns="http://www.w3.org/2000/svg">
<path d="M12.497 0.5C12.8578 0.499994 13.2119 0.609785 13.5217 0.817741C13.8316 1.0257 14.0856 1.32407 14.257 1.68125L14.743 2.69375C14.9144 3.05093 15.1684 3.3493 15.4783 3.55726C15.7881 3.76521 16.1422 3.87501 16.503 3.875H18.5C19.0304 3.875 19.5391 4.11205 19.9142 4.53401C20.2893 4.95597 20.5 5.52826 20.5 6.125V16.25C20.5 16.8467 20.2893 17.419 19.9142 17.841C19.5391 18.2629 19.0304 18.5 18.5 18.5H2.5C1.96957 18.5 1.46086 18.2629 1.08579 17.841C0.710714 17.419 0.5 16.8467 0.5 16.25V6.125C0.5 5.52826 0.710714 4.95597 1.08579 4.53401C1.46086 4.11205 1.96957 3.875 2.5 3.875H4.497C4.85742 3.87502 5.21115 3.76547 5.52078 3.55794C5.83041 3.3504 6.08444 3.05259 6.256 2.696L6.745 1.679C6.91656 1.32241 7.17059 1.0246 7.48022 0.817063C7.78985 0.609527 8.14358 0.499978 8.504 0.5H12.497Z" stroke="black" stroke-linecap="round" stroke-linejoin="round"/>
<path d="M10.5 14C12.1569 14 13.5 12.489 13.5 10.625C13.5 8.76104 12.1569 7.25 10.5 7.25C8.84315 7.25 7.5 8.76104 7.5 10.625C7.5 12.489 8.84315 14 10.5 14Z" stroke="black" stroke-linecap="round" stroke-linejoin="round"/>
</svg>
