<svg width="28" height="28" viewBox="0 0 28 28" fill="none" xmlns="http://www.w3.org/2000/svg">
<g clip-path="url(#clip0_113_72)">
<path d="M3.55467 15.0938C2.66333 13.4285 2.40017 11.4984 2.81318 9.65539C3.22619 7.81233 4.28786 6.17911 5.8046 5.05352C7.32133 3.92794 9.19209 3.38498 11.0758 3.52364C12.9594 3.66231 14.7305 4.47337 16.0661 5.80893C17.4016 7.14448 18.2127 8.91557 18.3514 10.7992C18.49 12.6829 17.9471 14.5537 16.8215 16.0704C15.6959 17.5871 14.0627 18.6488 12.2196 19.0618C10.3766 19.4748 8.44645 19.2117 6.78124 18.3203L3.74499 19.2128C3.59422 19.2571 3.43431 19.26 3.28206 19.2211C3.12981 19.1822 2.99083 19.1031 2.87972 18.992C2.76861 18.8809 2.68947 18.7419 2.65062 18.5896C2.61176 18.4374 2.61462 18.2775 2.65889 18.1267L3.55467 15.0938Z" stroke="black" stroke-linecap="round" stroke-linejoin="round"/>
<path d="M17.9309 8.76202C19.2539 8.83395 20.5372 9.23847 21.6623 9.93814C22.7873 10.6378 23.7177 11.61 24.3672 12.7648C25.0167 13.9195 25.3644 15.2194 25.378 16.5442C25.3917 17.869 25.0709 19.1759 24.4453 20.3437L25.3378 23.38C25.3821 23.5308 25.3849 23.6907 25.3461 23.8429C25.3072 23.9952 25.2281 24.1341 25.117 24.2453C25.0059 24.3564 24.8669 24.4355 24.7146 24.4744C24.5624 24.5132 24.4025 24.5104 24.2517 24.4661L21.2187 23.5703C20.2169 24.1061 19.111 24.4189 17.9768 24.4873C16.8427 24.5558 15.7073 24.3781 14.6482 23.9666C13.5892 23.5551 12.6317 22.9195 11.8413 22.1033C11.0509 21.2871 10.4463 20.3097 10.0691 19.238" stroke="black" stroke-linecap="round" stroke-linejoin="round"/>
</g>
<defs>
<clipPath id="clip0_113_72">
<rect width="28" height="28" fill="white"/>
</clipPath>
</defs>
</svg>
