<svg width="13" height="13" viewBox="0 0 13 13" fill="none" xmlns="http://www.w3.org/2000/svg">
<path d="M3.41667 5.16667H9.25M3.41667 7.5H6.91667M3.41667 2.83333H8.08333M12.1667 8.66667C12.1667 8.97609 12.0438 9.27283 11.825 9.49162C11.6062 9.71042 11.3094 9.83333 11 9.83333H3.31633C3.00694 9.8334 2.71024 9.95636 2.4915 10.1752L1.207 11.4597C1.14908 11.5176 1.07529 11.557 0.994952 11.573C0.914619 11.589 0.831352 11.5808 0.755679 11.5494C0.680007 11.5181 0.615327 11.465 0.569817 11.3969C0.524307 11.3288 0.500011 11.2487 0.5 11.1668V1.66667C0.5 1.35725 0.622916 1.0605 0.841709 0.841709C1.0605 0.622916 1.35725 0.5 1.66667 0.5H11C11.3094 0.5 11.6062 0.622916 11.825 0.841709C12.0438 1.0605 12.1667 1.35725 12.1667 1.66667V8.66667Z" stroke="#7B7B7B" stroke-linecap="round" stroke-linejoin="round"/>
</svg>
