<svg width="13" height="13" viewBox="0 0 13 13" fill="none" xmlns="http://www.w3.org/2000/svg">
<path d="M6.50016 7.04163C6.79932 7.04163 7.04183 6.79911 7.04183 6.49996C7.04183 6.20081 6.79932 5.95829 6.50016 5.95829C6.20101 5.95829 5.9585 6.20081 5.9585 6.49996C5.9585 6.79911 6.20101 7.04163 6.50016 7.04163Z" stroke="#7B7B7B" stroke-linecap="round" stroke-linejoin="round"/>
<path d="M6.50016 3.24996C6.79932 3.24996 7.04183 3.00745 7.04183 2.70829C7.04183 2.40914 6.79932 2.16663 6.50016 2.16663C6.20101 2.16663 5.9585 2.40914 5.9585 2.70829C5.9585 3.00745 6.20101 3.24996 6.50016 3.24996Z" stroke="#7B7B7B" stroke-linecap="round" stroke-linejoin="round"/>
<path d="M6.50016 10.8333C6.79932 10.8333 7.04183 10.5908 7.04183 10.2916C7.04183 9.99247 6.79932 9.74996 6.50016 9.74996C6.20101 9.74996 5.9585 9.99247 5.9585 10.2916C5.9585 10.5908 6.20101 10.8333 6.50016 10.8333Z" stroke="#7B7B7B" stroke-linecap="round" stroke-linejoin="round"/>
</svg>
