<svg width="13" height="13" viewBox="0 0 13 13" fill="none" xmlns="http://www.w3.org/2000/svg">
<path d="M0.5 4.39013C0.500012 3.60536 0.702555 2.83905 1.08088 2.19241C1.4592 1.54578 1.99551 1.04924 2.61896 0.768375C3.24241 0.487513 3.92368 0.435541 4.57279 0.619322C5.22191 0.803104 5.80832 1.21399 6.25458 1.79772C6.28601 1.83723 6.32401 1.86872 6.36623 1.89025C6.40844 1.91178 6.45397 1.92289 6.49998 1.92289C6.546 1.92289 6.59152 1.91178 6.63374 1.89025C6.67595 1.86872 6.71395 1.83723 6.74538 1.79772C7.19024 1.2102 7.77679 0.795857 8.42696 0.609842C9.07712 0.423828 9.76007 0.474964 10.3849 0.756446C11.0097 1.03793 11.5468 1.5364 11.9246 2.18553C12.3025 2.83465 12.5031 3.60364 12.5 4.39013C12.5 6.0051 11.6 7.21103 10.7 8.26887L7.40478 12.0157C7.29298 12.1667 7.15514 12.2879 7.00041 12.3714C6.84568 12.4549 6.67761 12.4987 6.50735 12.5C6.3371 12.5012 6.16857 12.4599 6.01295 12.3787C5.85734 12.2976 5.7182 12.1784 5.60478 12.0291L2.29999 8.26887C1.4 7.21103 0.5 6.01215 0.5 4.39013Z" fill="#678BFF" stroke="#678BFF" stroke-linecap="round" stroke-linejoin="round"/>
</svg>
