<svg width="40" height="40" viewBox="0 0 40 40" fill="none" xmlns="http://www.w3.org/2000/svg">
<path d="M5.14323 29.1817C5.28618 28.5322 5.23162 27.8549 4.98656 27.2367C3.28117 23.6983 2.88032 19.6712 3.85471 15.8661C4.82911 12.0609 7.11614 8.72218 10.3123 6.43892C13.5084 4.15566 17.4083 3.07461 21.3239 3.38651C25.2394 3.69842 28.919 5.38322 31.7133 8.14368C34.5077 10.9041 36.2373 14.5628 36.5971 18.4743C36.9568 22.3857 35.9234 26.2985 33.6794 29.5223C31.4353 32.7461 28.1248 35.0737 24.3318 36.0946C20.5388 37.1154 16.5072 36.7637 12.9482 35.1017C12.3641 34.8799 11.7294 34.8268 11.1166 34.9484L5.42823 36.6117C5.15383 36.6845 4.86538 36.686 4.59022 36.6161C4.31507 36.5462 4.06234 36.4071 3.856 36.2121C3.64966 36.0172 3.49655 35.7727 3.41118 35.5019C3.32582 35.2312 3.31103 34.9431 3.36823 34.665L5.14323 29.1817Z" stroke="#A5A3A3" stroke-linecap="round" stroke-linejoin="round"/>
</svg>
