<svg width="13" height="15" viewBox="0 0 13 15" fill="none" xmlns="http://www.w3.org/2000/svg">
<path d="M5.17565 6.50712L5.18638 10.5071M7.84231 6.49997L7.85303 10.5M11.1667 3.15772L11.1917 12.491C11.1927 12.8446 11.0531 13.1842 10.8037 13.4349C10.5543 13.6856 10.2156 13.827 9.86196 13.8279L3.19532 13.8458C2.8417 13.8467 2.50218 13.7072 2.25146 13.4578C2.00075 13.2084 1.85936 12.8697 1.85841 12.516L1.8334 3.18274M0.500068 3.18631L12.5 3.15414M3.83339 3.17738L3.82982 1.84405C3.82887 1.49043 3.96843 1.15091 4.21781 0.900194C4.46719 0.649476 4.80595 0.508092 5.15957 0.507144L7.82623 0.499996C8.17985 0.499048 8.51936 0.638614 8.77008 0.887992C9.0208 1.13737 9.16218 1.47613 9.16313 1.82975L9.1667 3.16308" stroke="white" stroke-linecap="round" stroke-linejoin="round"/>
</svg>
