<svg width="13" height="15" viewBox="0 0 13 15" fill="none" xmlns="http://www.w3.org/2000/svg">
<path d="M5.17541 6.50712L5.18613 10.5071M7.84207 6.49997L7.85279 10.5M11.1665 3.15772L11.1915 12.491C11.1924 12.8446 11.0529 13.1842 10.8035 13.4349C10.5541 13.6856 10.2153 13.827 9.86172 13.8279L3.19507 13.8458C2.84145 13.8467 2.50194 13.7072 2.25122 13.4578C2.0005 13.2084 1.85912 12.8697 1.85817 12.516L1.83315 3.18274M0.499824 3.18631L12.4998 3.15414M3.83315 3.17738L3.82957 1.84405C3.82862 1.49043 3.96819 1.15091 4.21757 0.900194C4.46694 0.649476 4.80571 0.508092 5.15933 0.507144L7.82598 0.499996C8.1796 0.499048 8.51912 0.638614 8.76984 0.887992C9.02055 1.13737 9.16194 1.47613 9.16289 1.82975L9.16646 3.16308" stroke="black" stroke-linecap="round" stroke-linejoin="round"/>
</svg>
