<svg width="44" height="44" viewBox="0 0 44 44" fill="none" xmlns="http://www.w3.org/2000/svg">
<path d="M22 27.5C26.0501 27.5 29.3333 24.2168 29.3333 20.1667C29.3333 16.1166 26.0501 12.8333 22 12.8333C17.9499 12.8333 14.6667 16.1166 14.6667 20.1667C14.6667 24.2168 17.9499 27.5 22 27.5Z" fill="#D9D9D9"/>
<path d="M34.8333 5.5H9.16667C7.14162 5.5 5.5 7.14162 5.5 9.16667V34.8333C5.5 36.8584 7.14162 38.5 9.16667 38.5H34.8333C36.8584 38.5 38.5 36.8584 38.5 34.8333V9.16667C38.5 7.14162 36.8584 5.5 34.8333 5.5Z" fill="#D9D9D9"/>
<circle cx="21.9999" cy="19.8" r="6.6" fill="white"/>
<path d="M12.1001 37.4C12.1001 32.5399 16.04 28.6 20.9001 28.6H23.1001C27.9602 28.6 31.9001 32.5399 31.9001 37.4H12.1001Z" fill="white"/>
</svg>
